<?xml version="1.0" standalone="no"?>
<!DOCTYPE svg PUBLIC "-//W3C//DTD SVG 20010904//EN"
 "http://www.w3.org/TR/2001/REC-SVG-20010904/DTD/svg10.dtd">
<svg version="1.0" xmlns="http://www.w3.org/2000/svg"
 width="1940.000000pt" height="1940.000000pt" viewBox="0 0 1940.000000 1940.000000"
 preserveAspectRatio="xMidYMid meet">
<metadata>
Created by potrace 1.14, written by Peter Selinger 2001-2017
</metadata>
<g transform="translate(0.000000,1940.000000) scale(0.100000,-0.100000)"
fill="#000000" stroke="none">
<path d="M5429 17894 c-5 -14 -9 -29 -9 -33 0 -15 -28 -32 -57 -36 -15 -1 -27
-8 -25 -14 1 -6 -4 -10 -10 -8 -7 1 -12 -4 -10 -10 1 -7 -4 -13 -11 -13 -10 0
-14 -21 -15 -75 -1 -53 -6 -80 -17 -91 -13 -13 -20 -42 -16 -67 1 -4 -9 -6
-22 -3 -23 4 -23 3 -13 -43 12 -62 4 -85 -29 -79 -23 5 -25 3 -25 -36 0 -23 5
-47 10 -52 13 -13 16 -115 5 -134 -5 -8 -9 -33 -10 -55 0 -40 13 -65 35 -65 7
0 10 -7 7 -15 -4 -8 -1 -17 4 -21 7 -4 8 -23 4 -53 -4 -25 -9 -71 -10 -101 -1
-30 -6 -80 -10 -110 -8 -64 -9 -60 1 -127 4 -33 3 -57 -4 -66 -6 -7 -7 -18 -3
-26 4 -7 4 -31 -1 -54 -5 -23 -9 -49 -10 -57 -1 -8 -5 -18 -11 -21 -5 -4 -11
-27 -13 -52 -5 -62 -11 -92 -23 -115 -6 -11 -12 -46 -14 -79 -2 -32 -10 -70
-17 -83 -7 -14 -12 -26 -11 -28 2 -1 0 -19 -3 -40 -3 -20 -9 -55 -12 -77 -3
-22 -16 -76 -30 -120 -13 -44 -29 -107 -35 -140 -6 -33 -15 -65 -20 -71 -5 -7
-8 -16 -7 -20 2 -5 -2 -22 -9 -39 -6 -16 -17 -57 -24 -90 -7 -33 -17 -65 -22
-72 -12 -17 -36 -109 -62 -243 -8 -41 -17 -87 -20 -101 -11 -57 -20 -179 -19
-259 3 -129 3 -132 15 -125 7 5 8 -8 3 -41 -12 -75 -10 -174 4 -229 7 -27 15
-72 18 -100 3 -27 7 -68 10 -90 3 -22 5 -68 4 -103 -1 -34 2 -68 7 -75 4 -6 9
-19 10 -27 9 -50 17 -109 17 -132 1 -16 5 -28 9 -28 5 0 5 -4 2 -10 -3 -5 1
-10 9 -10 9 0 16 -4 16 -9 0 -5 6 -16 13 -23 7 -7 23 -30 36 -50 12 -21 27
-38 32 -38 6 0 7 -4 4 -10 -3 -5 -1 -10 5 -10 6 0 8 -4 5 -10 -3 -5 -2 -10 4
-10 5 0 12 -8 16 -19 3 -10 18 -32 33 -48 65 -70 92 -103 85 -103 -5 0 4 -8
20 -18 15 -10 24 -22 20 -25 -3 -4 0 -7 7 -7 14 0 50 -37 50 -52 0 -4 6 -8 13
-8 6 0 34 -23 62 -50 27 -28 52 -50 56 -50 4 0 12 -13 19 -30 7 -16 19 -30 26
-30 8 0 13 -3 12 -7 -2 -8 30 -63 43 -73 3 -3 18 -30 33 -60 15 -30 34 -59 42
-63 8 -4 14 -13 14 -18 0 -14 26 -39 40 -39 6 0 14 -8 17 -17 4 -10 15 -25 25
-34 10 -10 18 -21 17 -25 -4 -23 2 -45 11 -39 6 3 10 1 10 -4 0 -6 0 -13 0
-16 0 -3 9 -14 20 -25 11 -11 20 -27 20 -36 0 -9 13 -30 30 -45 16 -16 32 -40
36 -54 3 -14 12 -25 19 -25 7 0 15 -13 19 -30 3 -17 12 -30 20 -30 8 0 18 -9
21 -21 4 -11 26 -38 48 -60 55 -51 53 -49 87 -89 16 -19 30 -40 30 -45 0 -6
23 -34 50 -64 28 -30 50 -60 50 -67 0 -8 6 -14 14 -14 8 0 26 -13 39 -30 14
-16 30 -30 36 -30 6 0 11 -4 11 -10 0 -5 6 -10 14 -10 8 0 21 -8 28 -18 7 -10
21 -21 31 -25 10 -4 16 -11 13 -16 -7 -11 48 -41 74 -41 9 0 21 -5 28 -12 7
-7 12 -8 12 -3 0 5 7 -1 16 -13 9 -13 14 -25 12 -27 -11 -11 -109 -18 -284
-20 -105 -1 -196 -5 -203 -10 -7 -4 -30 -10 -50 -12 -20 -2 -67 -14 -106 -25
-38 -11 -74 -21 -80 -22 -5 -1 -23 -9 -40 -17 -16 -9 -50 -22 -75 -29 -25 -7
-49 -17 -54 -22 -6 -4 -23 -8 -38 -8 -15 0 -28 -4 -28 -9 0 -14 -57 -30 -112
-33 -27 -1 -48 -5 -48 -9 0 -9 -32 -17 -140 -35 -96 -17 -94 -16 -135 -33 -16
-7 -34 -14 -40 -15 -13 -3 -57 -22 -115 -49 -25 -11 -50 -22 -57 -23 -6 -1
-21 -11 -33 -22 -12 -11 -32 -19 -46 -17 -13 1 -22 -1 -20 -4 5 -9 -32 -40
-39 -33 -4 4 -5 1 -3 -7 2 -8 -8 -20 -23 -27 -14 -7 -40 -34 -58 -59 -28 -40
-63 -69 -83 -70 -11 0 -68 -55 -68 -65 0 -6 -5 -10 -12 -10 -6 0 -23 -11 -37
-25 -74 -70 -102 -95 -106 -95 -6 0 -40 -30 -118 -105 -69 -66 -106 -95 -121
-95 -5 0 -6 -3 -3 -7 4 -3 -14 -26 -39 -50 -26 -24 -49 -41 -51 -39 -7 6 -47
-35 -55 -55 -4 -9 -16 -15 -29 -14 -24 2 -54 -20 -54 -38 0 -6 -16 -16 -35
-22 -19 -6 -34 -15 -32 -18 6 -18 1 -47 -8 -42 -5 3 -10 0 -10 -8 0 -8 -7 -20
-15 -27 -8 -7 -15 -21 -15 -32 0 -10 -11 -30 -25 -43 -13 -14 -21 -25 -18 -25
3 0 -2 -9 -12 -20 -10 -11 -20 -18 -24 -16 -9 6 -26 -17 -27 -36 -2 -49 -5
-59 -14 -53 -6 3 -10 -1 -10 -9 0 -9 -6 -16 -14 -16 -13 0 -26 -19 -32 -48 -1
-7 -11 -20 -23 -30 -11 -9 -21 -30 -23 -46 -3 -33 -35 -71 -68 -81 -11 -4 -18
-10 -15 -15 3 -4 -2 -13 -10 -20 -8 -7 -15 -19 -15 -27 0 -8 -4 -11 -10 -8 -5
3 -10 -1 -10 -10 0 -9 -4 -14 -9 -11 -5 3 -14 -8 -21 -24 -7 -17 -17 -30 -22
-30 -5 0 -7 -4 -4 -9 3 -5 -10 -16 -29 -25 -19 -9 -40 -22 -47 -29 -18 -16
-47 -34 -78 -49 -14 -7 -27 -15 -30 -18 -11 -12 -51 -30 -65 -30 -8 0 -15 -4
-15 -10 0 -5 -7 -10 -15 -10 -8 0 -15 -4 -15 -10 0 -5 -5 -10 -11 -10 -6 0
-42 -23 -80 -51 -38 -28 -73 -48 -79 -44 -5 3 -10 1 -10 -4 0 -6 -7 -11 -15
-11 -8 0 -15 -4 -15 -10 0 -5 -6 -10 -14 -10 -18 0 -76 -32 -76 -42 0 -5 -7
-8 -15 -8 -8 0 -15 -5 -15 -11 0 -6 -9 -9 -20 -6 -11 3 -18 2 -15 -3 5 -8 -24
-25 -37 -22 -5 1 -8 -3 -8 -9 0 -5 -4 -8 -9 -5 -5 3 -14 -1 -21 -9 -7 -8 -19
-15 -26 -15 -8 0 -14 -7 -14 -15 0 -8 -4 -15 -9 -15 -16 0 -96 -82 -93 -96 2
-8 -5 -12 -17 -9 -14 2 -18 -1 -14 -11 3 -8 -1 -14 -8 -14 -8 0 -27 -11 -43
-25 -16 -14 -25 -25 -20 -25 4 0 -3 -8 -16 -17 -14 -10 -26 -17 -27 -15 -9 8
-43 -42 -38 -57 3 -9 -2 -32 -11 -49 -8 -18 -13 -36 -9 -42 3 -5 2 -10 -3 -10
-8 0 -56 -84 -57 -99 -1 -3 -6 -16 -13 -28 -7 -13 -9 -23 -5 -23 4 0 1 -5 -7
-10 -10 -6 -15 -28 -15 -74 l0 -66 -57 0 c-31 0 -59 -4 -62 -8 -2 -4 8 -38 24
-74 15 -37 25 -69 22 -72 -3 -4 3 -6 13 -6 10 0 16 -3 12 -6 -3 -4 3 -25 15
-47 20 -41 50 -73 102 -112 14 -11 29 -28 32 -37 6 -22 34 -37 68 -40 15 -1
26 -6 26 -11 0 -4 13 -13 30 -18 17 -6 30 -15 30 -20 0 -5 5 -9 12 -9 6 0 49
-22 95 -50 46 -27 86 -50 89 -50 2 0 14 -9 26 -20 12 -11 32 -20 45 -20 13 0
23 -4 23 -8 0 -11 46 -32 70 -32 11 0 20 -5 20 -11 0 -5 4 -7 10 -4 5 3 19 -6
32 -20 12 -14 32 -25 45 -25 13 0 23 -4 23 -10 0 -5 7 -10 16 -10 8 0 12 -4 9
-10 -3 -5 1 -10 9 -10 9 0 16 -4 16 -10 0 -5 6 -10 13 -10 8 0 58 -22 113 -49
140 -68 168 -80 203 -87 17 -4 31 -10 31 -15 0 -5 11 -9 24 -9 14 0 27 -4 31
-9 3 -5 30 -19 61 -31 31 -11 63 -27 72 -36 15 -16 70 -54 126 -88 17 -10 33
-21 36 -25 11 -14 145 -82 172 -87 10 -2 38 -13 62 -25 25 -11 49 -18 55 -15
5 3 17 -1 25 -10 9 -8 16 -12 16 -7 0 4 4 2 8 -5 5 -7 19 -15 33 -17 65 -12
85 -18 90 -28 4 -5 18 -9 32 -9 14 0 28 -6 31 -13 2 -8 15 -11 30 -8 15 3 26
1 26 -5 0 -6 9 -14 20 -17 11 -4 18 -11 15 -16 -5 -7 67 -15 98 -10 4 0 7 -4
7 -10 0 -5 4 -8 9 -4 6 3 18 -3 28 -13 15 -16 30 -19 83 -16 36 1 99 4 140 5
41 1 86 7 100 12 14 6 29 9 33 8 5 -1 6 2 3 7 -16 27 113 51 276 53 65 0 120
4 123 8 12 20 198 18 285 -2 41 -10 93 -22 115 -27 22 -4 69 -15 103 -24 35
-9 81 -17 103 -18 21 -1 36 -4 34 -8 -2 -4 6 -6 18 -5 12 1 28 -3 36 -9 7 -6
39 -11 70 -13 80 -2 201 -24 201 -35 0 -6 7 -7 16 -4 8 3 25 1 37 -6 12 -6 42
-13 66 -14 24 -2 51 -6 60 -10 9 -4 25 -8 36 -9 11 -1 36 -6 55 -10 19 -5 38
-8 43 -7 10 3 9 -12 -3 -24 -6 -6 7 -10 40 -11 28 0 50 3 50 8 0 5 12 4 28 -2
47 -18 242 -10 282 11 11 6 20 8 20 6 0 -3 12 -1 26 4 14 6 46 13 71 16 44 5
175 60 181 76 2 4 12 8 22 8 9 0 38 9 64 20 25 12 49 20 52 20 4 -1 10 2 13 7
10 13 111 73 124 73 7 0 23 9 37 20 14 11 33 20 43 20 9 0 17 5 17 10 0 6 5
10 10 10 6 0 20 9 32 20 12 11 32 20 44 20 12 0 24 3 26 8 6 15 104 59 126 57
14 -1 26 5 30 14 15 41 62 62 142 64 l55 2 0 -48 c1 -27 -3 -51 -7 -53 -5 -3
-6 -9 -3 -13 2 -5 -6 -13 -19 -19 -25 -11 -34 -40 -41 -122 -2 -25 -6 -67 -10
-95 -4 -27 -6 -59 -4 -70 1 -11 2 -75 1 -142 0 -68 3 -123 8 -123 4 0 8 -10 8
-22 0 -30 5 -52 14 -58 4 -3 9 -21 10 -40 2 -19 7 -38 12 -42 5 -3 10 -40 10
-82 1 -42 4 -76 7 -76 7 0 22 -69 24 -105 1 -11 7 -30 13 -42 7 -13 13 -39 14
-58 1 -19 4 -35 8 -35 4 0 10 -15 14 -33 3 -17 11 -54 16 -82 6 -27 13 -66 16
-85 2 -19 6 -51 9 -70 3 -19 7 -55 10 -79 3 -24 10 -63 14 -85 9 -44 10 -48
15 -112 4 -39 8 -62 22 -124 3 -14 8 -70 10 -125 2 -55 7 -165 10 -245 8 -172
8 -156 2 -492 -3 -147 -2 -266 1 -264 3 2 7 -48 8 -112 1 -65 8 -151 17 -192
8 -41 12 -78 9 -83 -2 -4 1 -15 8 -23 6 -8 10 -17 7 -20 -3 -2 -1 -26 4 -52 5
-26 11 -76 14 -111 2 -34 6 -66 8 -70 2 -3 7 -31 11 -61 4 -30 11 -60 16 -66
5 -6 9 -33 9 -60 0 -27 2 -60 4 -74 6 -32 26 -122 30 -135 1 -5 6 -23 10 -40
4 -16 10 -37 13 -45 6 -15 11 -30 16 -52 7 -29 61 -128 69 -128 5 0 31 -22 58
-50 27 -27 53 -50 59 -50 6 0 11 -4 11 -10 0 -5 7 -10 15 -10 8 0 20 -9 27
-20 7 -11 18 -20 24 -20 6 0 20 -11 32 -25 12 -14 28 -25 35 -25 7 0 29 -9 50
-20 20 -11 39 -19 42 -18 2 2 14 -5 25 -14 11 -10 25 -18 32 -18 6 0 8 -3 5
-7 -7 -7 38 -33 57 -33 6 0 17 -9 24 -20 7 -11 19 -20 27 -20 8 0 15 -4 15
-10 0 -5 7 -10 15 -10 8 0 15 -3 15 -7 0 -5 18 -21 40 -37 22 -17 40 -36 40
-43 0 -7 5 -13 12 -13 6 0 31 -19 55 -42 60 -60 83 -79 83 -70 0 4 7 -2 15
-12 8 -11 15 -16 15 -11 0 5 7 0 15 -11 8 -10 15 -15 15 -10 0 6 13 -3 30 -19
16 -15 27 -33 23 -38 -3 -6 -2 -7 4 -4 13 8 67 -49 59 -62 -4 -6 -1 -11 7 -11
8 0 17 -7 21 -15 3 -8 12 -15 21 -15 13 0 16 -5 14 -26 0 -3 13 -15 28 -27 15
-12 43 -36 62 -54 19 -18 37 -33 40 -33 12 0 70 -105 77 -137 3 -18 15 -40 25
-49 10 -9 16 -21 13 -25 -3 -5 0 -9 6 -9 6 0 9 -4 5 -10 -3 -5 3 -18 13 -28
10 -10 24 -32 31 -50 7 -18 18 -32 24 -32 6 0 8 -3 4 -6 -3 -4 1 -13 9 -21 8
-8 12 -19 9 -24 -4 -5 -3 -9 2 -9 7 0 25 -43 36 -85 2 -5 8 -20 15 -31 6 -12
14 -40 18 -63 4 -22 10 -41 14 -41 5 0 7 -8 6 -17 -2 -10 1 -25 5 -33 5 -8 16
-31 24 -50 9 -19 22 -47 30 -62 19 -34 26 -91 12 -100 -7 -4 -7 -11 2 -22 8
-9 10 -16 6 -16 -4 0 0 -11 8 -24 12 -17 13 -26 4 -35 -8 -8 -8 -11 2 -11 7 0
10 -4 6 -9 -3 -6 3 -15 13 -20 10 -6 27 -31 36 -56 10 -25 22 -45 27 -45 6 0
8 -4 5 -9 -4 -5 10 -30 29 -55 19 -26 35 -53 35 -62 0 -10 5 -14 15 -10 9 3
15 1 14 -7 -3 -27 2 -36 16 -31 11 5 13 2 9 -10 -5 -13 2 -16 46 -16 42 0 51
3 46 15 -3 8 -1 25 4 37 5 13 9 19 9 14 1 -5 14 5 30 23 16 18 37 34 46 35 10
1 25 16 34 32 9 16 19 31 24 32 4 2 7 14 7 27 0 22 30 43 53 37 4 -1 10 6 13
15 3 10 16 41 29 68 31 65 44 100 49 138 1 10 7 22 12 25 26 18 63 123 71 202
3 30 10 57 14 58 5 2 7 7 4 12 -3 5 0 14 7 22 7 7 15 27 16 43 2 17 8 35 13
41 5 6 6 14 2 17 -3 4 -1 7 6 7 7 0 10 3 8 8 -3 4 3 25 14 46 10 22 19 47 19
56 0 9 3 20 8 24 4 4 7 11 8 14 0 4 10 29 22 55 12 27 22 54 22 61 0 6 6 20
14 31 16 23 47 121 40 128 -2 2 2 10 11 17 8 7 15 20 15 29 0 10 7 26 15 37 8
10 19 36 25 57 6 20 15 37 20 37 6 0 10 6 10 13 0 18 24 67 33 67 4 0 7 8 7
19 0 10 7 24 15 31 8 6 14 15 13 18 -3 14 16 48 38 68 13 12 21 24 18 27 -3 3
7 14 21 25 14 11 26 24 25 29 0 4 7 16 15 26 8 9 15 22 15 27 0 6 7 10 16 10
8 0 21 15 29 33 8 17 28 45 44 60 17 16 28 33 25 38 -3 6 7 23 23 38 16 15 27
33 25 39 -2 7 1 12 6 12 12 0 43 46 46 68 2 8 10 20 19 27 9 7 17 17 17 23 0
6 7 9 15 6 11 -5 17 3 21 24 6 29 27 47 43 38 4 -3 8 5 9 17 3 39 29 102 42
99 6 -1 9 2 5 8 -3 5 1 13 9 16 9 3 16 15 16 26 0 10 4 17 9 14 5 -3 11 5 15
17 6 27 39 67 54 67 6 0 9 8 7 18 -2 10 1 25 6 33 5 8 9 10 9 4 1 -5 10 13 21
40 21 51 22 54 34 92 4 13 11 23 15 23 4 0 18 19 30 42 12 24 31 51 41 61 10
10 19 29 19 43 0 14 3 23 8 21 4 -3 8 5 9 16 3 34 8 51 16 65 5 7 9 26 9 43 1
28 28 56 41 43 3 -3 3 3 0 15 -3 12 -1 21 6 21 6 0 10 3 9 7 -4 16 14 53 23
48 5 -4 9 2 9 12 0 23 22 73 33 73 4 0 7 7 7 16 0 8 11 32 25 52 14 20 25 40
25 44 0 5 9 17 20 28 11 11 20 29 20 40 0 11 3 20 8 20 7 0 46 62 43 68 -1 1
7 14 18 29 12 14 19 29 16 33 -3 4 2 10 10 14 8 3 12 12 9 21 -3 8 -2 15 4 15
5 0 15 15 22 33 8 17 19 39 26 47 7 8 12 17 12 20 -3 15 25 80 34 80 6 0 8 3
5 7 -4 3 -1 16 7 27 7 12 24 55 36 96 13 41 31 93 41 115 10 22 20 56 23 75 7
52 21 102 36 130 8 14 14 34 15 45 3 44 18 110 26 115 16 10 22 84 22 255 0
170 -2 189 -16 213 -5 6 -5 17 -1 24 4 6 3 8 -4 5 -10 -7 -21 37 -28 108 -4
44 -25 148 -32 160 -10 16 -14 37 -16 77 0 20 -5 34 -10 30 -5 -3 -7 2 -3 11
3 10 3 17 -2 17 -8 0 -52 82 -55 103 -1 7 -11 27 -23 43 -13 17 -20 34 -16 38
3 3 1 6 -5 6 -7 0 -12 6 -12 14 0 7 -7 19 -15 26 -8 7 -20 30 -25 52 -6 21
-20 48 -31 59 -10 10 -19 23 -19 28 0 5 -7 14 -15 21 -8 7 -15 20 -15 29 0 9
-11 28 -24 43 -14 14 -22 29 -19 32 4 3 -2 6 -12 6 -10 0 -16 3 -12 6 8 8 -20
85 -40 106 -9 10 -13 18 -9 18 4 0 1 7 -6 15 -27 30 -36 43 -52 72 -8 17 -12
33 -9 37 4 3 1 6 -5 6 -7 0 -11 3 -10 8 1 4 -5 21 -12 37 -7 17 -14 32 -14 35
-1 3 -4 10 -7 15 -3 6 -5 21 -5 35 1 14 -6 33 -14 43 -8 10 -13 19 -10 20 3 1
-5 16 -17 32 -23 33 -26 44 -24 91 1 43 25 39 58 -10 15 -23 32 -44 38 -48 5
-4 6 -8 2 -8 -4 0 1 -10 13 -22 11 -12 20 -28 20 -35 0 -7 8 -13 17 -13 9 0
14 -3 10 -6 -3 -4 -1 -12 6 -20 30 -33 35 -42 30 -48 -4 -3 -1 -6 5 -6 7 0 12
-8 12 -17 1 -17 32 -63 44 -63 3 0 23 -18 46 -41 37 -38 53 -79 30 -79 -17 0
-11 -28 8 -39 9 -6 13 -11 9 -11 -5 0 -1 -7 7 -16 9 -8 20 -12 26 -9 5 3 10
-1 10 -9 0 -12 33 -31 50 -28 3 0 9 -6 13 -14 5 -8 12 -12 18 -9 5 4 9 2 9 -2
0 -5 18 -17 40 -27 22 -10 40 -22 40 -27 0 -5 9 -9 19 -9 11 0 23 -9 26 -20 3
-11 13 -20 21 -20 8 0 18 -8 21 -17 8 -22 54 -62 70 -63 7 0 17 -9 23 -20 6
-10 32 -34 58 -51 26 -18 50 -37 54 -43 5 -7 8 -7 8 -1 0 6 5 2 11 -7 5 -10
19 -18 29 -18 11 0 20 -5 20 -11 0 -6 5 -9 12 -7 15 5 49 -22 42 -34 -3 -4 1
-5 9 -3 7 3 26 -4 42 -17 16 -12 35 -23 43 -25 8 -1 19 -8 23 -15 5 -7 9 -8 9
-3 0 6 8 0 18 -13 10 -13 25 -24 32 -25 8 -2 22 -7 30 -12 8 -5 18 -10 22 -10
3 0 18 -10 32 -22 15 -13 35 -23 46 -23 11 0 20 -4 20 -10 0 -5 7 -10 15 -10
8 0 15 -3 15 -7 0 -5 12 -9 26 -10 15 0 29 -5 33 -11 8 -12 65 -23 116 -21
130 4 243 -5 255 -20 3 -3 37 -7 75 -7 39 -1 86 -2 105 -3 19 -1 44 -1 55 0
34 3 85 -13 85 -27 0 -7 4 -16 10 -19 5 -3 7 0 4 9 -7 19 46 48 66 36 8 -5 18
-6 23 -3 4 3 23 7 40 10 18 3 39 8 47 13 8 4 27 7 43 6 15 -1 27 2 27 7 0 4 5
5 10 2 6 -3 10 -1 10 5 0 8 23 11 68 9 38 -1 75 2 83 7 8 4 37 9 64 10 28 1
57 5 65 8 8 3 34 8 57 10 22 2 47 7 53 11 7 4 48 8 91 8 44 1 79 5 79 9 0 4 5
8 11 8 6 0 17 6 24 13 33 29 45 37 55 37 5 0 10 5 10 12 0 6 3 9 6 5 4 -3 20
1 36 9 16 8 32 13 37 10 4 -3 20 2 35 9 16 8 32 13 36 10 5 -3 11 4 15 15 3
11 11 20 16 20 5 0 18 9 30 21 11 11 30 21 42 21 12 1 36 14 52 29 19 17 44
29 67 32 21 2 41 7 45 10 11 12 24 8 17 -5 -6 -10 -4 -10 7 -2 8 6 30 11 49
13 19 1 46 7 60 15 15 7 47 12 73 12 26 -1 47 3 47 8 0 4 7 6 15 3 8 -4 16 -3
19 1 2 4 21 7 42 6 21 -1 49 2 63 8 14 5 44 11 66 14 22 2 63 8 90 14 28 5 68
12 90 15 22 3 54 8 70 12 17 3 100 7 185 9 85 1 169 6 185 9 29 5 61 9 175 21
30 3 161 7 290 8 129 2 253 7 275 10 22 3 76 10 120 15 44 5 121 16 170 24 87
15 249 30 310 29 57 0 145 -15 145 -23 0 -5 9 -9 20 -9 11 0 34 -9 52 -20 19
-11 51 -20 74 -20 22 0 45 -5 51 -11 12 -12 243 -16 262 -5 14 9 14 76 0 76
-5 0 -8 4 -4 9 3 6 -15 24 -40 41 -25 17 -45 34 -45 38 0 4 -14 22 -30 41 -17
18 -30 39 -30 46 0 7 -6 18 -14 24 -16 13 -51 82 -48 93 1 4 -7 10 -18 13 -11
4 -18 10 -15 15 2 4 -2 22 -11 39 -8 17 -13 35 -10 40 4 5 2 12 -4 16 -16 10
-43 74 -36 90 3 8 2 15 -3 15 -9 0 -11 8 -14 72 -1 27 -5 48 -9 48 -4 0 -13
18 -19 40 -7 22 -18 40 -24 40 -15 0 -50 38 -42 46 3 3 -3 14 -13 24 -11 11
-22 35 -26 54 -3 20 -10 36 -15 36 -5 0 -9 9 -9 20 0 11 -4 20 -10 20 -5 0
-10 6 -10 13 0 20 -47 68 -61 62 -9 -3 -19 7 -28 27 -8 18 -21 39 -28 46 -7 8
-11 18 -8 23 4 5 2 9 -4 9 -6 0 -13 11 -17 25 -3 14 -10 25 -14 25 -14 0 -51
71 -44 83 4 7 4 9 -1 5 -13 -12 -37 30 -30 53 5 15 2 22 -14 26 -12 3 -21 12
-21 19 0 14 -20 55 -31 64 -4 3 -10 19 -13 37 -4 17 -18 44 -31 59 -13 15 -27
45 -30 67 -4 21 -14 41 -22 44 -8 3 -12 11 -9 18 2 7 -6 17 -19 23 -20 9 -60
65 -54 74 1 2 -14 20 -32 41 -19 21 -34 42 -34 45 0 4 -6 21 -14 39 -11 27
-11 36 2 63 9 17 12 28 8 25 -5 -2 -11 8 -14 24 -4 18 -15 32 -27 36 -11 4
-19 12 -18 18 4 21 -23 88 -53 132 -15 23 -36 67 -46 98 -10 34 -23 57 -31 57
-10 0 -13 9 -10 29 2 17 2 28 -1 27 -3 -2 -12 2 -19 10 -7 8 -10 14 -7 14 12
0 -26 59 -64 101 -22 24 -41 54 -41 67 0 12 -6 22 -12 22 -15 1 -74 78 -71 91
2 5 -2 9 -7 9 -6 0 -10 6 -10 14 0 8 -11 23 -25 34 -14 11 -24 24 -23 29 1 4
-3 18 -10 29 -6 12 -8 24 -5 28 3 3 -1 6 -10 6 -12 0 -17 9 -17 30 0 18 -6 33
-15 36 -8 4 -15 12 -15 20 0 8 -4 14 -8 14 -9 0 -42 69 -42 87 0 5 -9 18 -20
28 -11 10 -17 22 -14 26 3 5 -2 9 -10 9 -8 0 -18 9 -21 20 -3 11 -13 20 -21
20 -8 0 -13 4 -9 9 3 5 -2 16 -10 24 -8 9 -15 19 -15 24 0 5 -9 16 -20 26 -11
9 -20 24 -20 33 0 8 -14 29 -30 46 -17 16 -28 33 -26 37 3 4 -4 20 -15 37 -10
16 -19 26 -19 22 0 -4 -10 3 -23 15 -13 12 -22 25 -21 28 2 3 -15 16 -37 28
-22 13 -45 31 -52 42 -6 10 -18 19 -25 19 -19 0 -115 99 -117 120 -2 24 -24
50 -41 50 -8 0 -14 5 -14 10 0 6 -12 16 -27 22 -16 7 -35 21 -44 30 -9 10 -21
18 -28 18 -6 0 -11 5 -11 10 0 6 -6 10 -12 10 -7 0 -24 14 -37 30 -13 17 -28
30 -35 30 -6 0 -17 9 -23 19 -7 11 -22 21 -34 23 -12 2 -27 12 -33 23 -14 25
-46 55 -59 55 -5 0 -17 8 -26 18 -20 21 -47 39 -83 55 -16 6 -28 15 -28 19 0
4 -8 8 -17 8 -10 0 -29 9 -43 20 -14 11 -30 20 -36 20 -6 0 -23 10 -38 21 -15
12 -30 19 -33 16 -3 -4 -20 1 -37 10 -32 17 -45 21 -84 25 -13 1 -28 8 -34 15
-6 7 -18 13 -28 13 -9 0 -20 3 -24 7 -3 4 -28 9 -54 10 -25 2 -49 7 -52 11 -3
4 -34 9 -70 11 -36 2 -74 5 -85 8 -36 9 -370 10 -387 1 -9 -4 -54 -11 -99 -13
-46 -3 -88 -10 -95 -15 -6 -6 -25 -10 -40 -9 -16 0 -42 -2 -59 -6 -84 -18
-195 -27 -195 -14 0 5 -9 0 -20 -11 -11 -11 -27 -20 -35 -20 -9 0 -34 -9 -55
-20 -22 -11 -52 -21 -67 -22 -16 -1 -33 -5 -39 -10 -6 -5 -33 -10 -60 -12 -26
-2 -53 -10 -58 -18 -14 -17 -55 -37 -86 -41 -14 -2 -43 -12 -65 -22 -22 -11
-47 -20 -56 -20 -8 0 -23 -8 -33 -17 -10 -10 -26 -18 -36 -18 -11 0 -45 -7
-76 -15 -31 -8 -61 -12 -65 -9 -5 3 -9 0 -9 -5 0 -10 -81 -36 -96 -31 -4 1
-10 -3 -13 -8 -3 -6 -23 -13 -45 -17 -34 -7 -38 -6 -34 11 2 13 38 36 108 71
58 28 107 51 110 51 3 -1 22 6 42 15 21 10 45 19 55 20 10 2 32 10 48 17 17 7
33 14 37 14 3 1 9 4 12 7 4 4 20 5 37 3 17 -2 39 1 49 6 13 7 20 6 23 -3 3 -7
6 -4 6 7 1 12 6 16 16 12 21 -8 45 3 39 19 -3 7 3 16 13 20 17 8 26 10 68 18
11 2 33 9 48 15 16 7 35 12 43 12 8 0 14 5 14 10 0 6 7 10 16 10 19 0 39 20
39 40 0 8 5 15 10 15 6 1 20 6 33 13 12 7 27 10 32 7 6 -3 10 1 10 9 0 17 2
17 89 22 66 3 81 9 81 29 0 21 27 48 40 40 6 -4 9 -1 8 7 -2 7 4 13 12 13 15
0 46 43 42 59 -2 5 4 6 13 2 10 -3 14 -2 10 5 -4 6 2 13 12 15 11 3 28 23 37
45 10 23 22 36 28 32 8 -4 9 0 4 12 -10 26 4 85 20 85 8 0 14 10 14 23 0 12
11 34 25 49 24 26 45 65 51 97 1 8 9 18 17 23 8 4 18 19 21 33 4 14 13 25 21
25 8 0 16 6 16 13 3 18 5 49 7 75 1 15 8 22 23 22 17 0 20 5 16 21 -8 31 2 49
29 49 17 0 24 6 24 19 0 16 9 21 43 26 40 6 43 9 39 31 -2 14 0 24 6 22 15 -4
52 42 52 65 0 14 5 18 19 14 14 -3 17 0 14 13 -5 19 79 114 91 103 3 -4 6 1 6
9 0 8 9 27 20 41 11 14 20 35 20 46 0 12 5 21 10 21 6 0 10 5 10 11 0 6 22 33
48 60 30 31 52 65 61 94 7 25 19 45 26 45 8 0 11 8 9 18 -3 9 4 35 16 57 11
21 20 45 20 52 0 6 8 17 18 22 9 6 14 11 10 11 -4 0 -2 13 3 30 6 16 14 29 17
29 26 -4 41 3 36 15 -3 8 4 32 15 55 12 22 22 49 24 61 2 11 8 25 14 31 6 6 9
18 6 27 -4 10 -2 13 5 8 8 -5 14 3 18 23 4 17 10 31 14 31 4 0 6 12 4 27 -1
14 15 74 37 131 22 58 38 111 35 118 -3 8 2 33 10 56 9 24 18 52 19 63 2 11 6
36 10 55 11 59 17 122 19 190 1 36 5 71 9 78 5 6 6 12 2 12 -3 0 -1 9 4 19 6
10 13 35 15 56 3 20 10 43 17 51 6 8 8 14 4 14 -4 0 -2 7 5 15 7 8 9 15 4 15
-4 0 -3 5 4 12 7 7 12 23 12 36 0 16 4 21 13 16 6 -4 9 -4 5 0 -3 4 0 25 7 47
8 22 15 43 16 47 1 4 8 16 15 27 15 24 44 121 38 128 -2 2 7 16 20 30 14 15
22 27 18 27 -4 0 1 5 10 11 10 5 18 18 18 29 0 10 12 32 26 49 14 17 23 31 19
31 -3 0 3 13 14 29 11 15 18 31 14 35 -3 3 -1 6 5 6 7 0 12 9 12 20 0 11 7 20
15 20 8 0 15 5 15 10 0 21 2 25 17 43 9 9 13 17 9 17 -4 0 -2 9 4 20 6 11 18
20 26 20 8 0 13 4 10 9 -3 5 17 33 44 62 28 30 50 59 50 66 0 6 13 17 30 25
16 7 29 17 29 23 -3 27 2 56 9 51 10 -6 40 17 44 34 2 8 13 25 24 38 25 28 34
86 25 152 -13 91 21 190 65 190 8 0 11 6 7 16 -3 9 -1 19 5 23 19 12 24 57 8
73 -8 9 -12 18 -9 22 4 3 1 6 -5 6 -18 0 -49 35 -44 50 3 7 0 10 -6 6 -11 -6
-42 46 -42 71 0 7 -5 13 -12 13 -6 0 -9 3 -5 6 3 3 -5 24 -19 45 -13 21 -24
45 -24 54 0 8 -4 15 -10 15 -5 0 -10 7 -10 16 0 9 -5 12 -11 8 -9 -5 -10 7 -7
44 3 27 1 57 -4 66 -8 13 6 32 61 86 39 38 71 73 71 78 0 5 11 21 25 34 14 14
30 41 37 59 6 19 22 42 34 52 13 10 38 45 56 77 18 33 38 60 45 60 7 0 13 9
13 19 0 11 4 21 8 23 5 2 23 24 41 51 17 26 37 47 43 47 6 0 9 3 6 6 -8 8 51
126 70 140 8 6 16 26 17 45 0 19 11 54 23 79 12 25 22 55 22 67 0 12 5 23 11
25 19 6 21 89 2 110 -9 10 -13 18 -10 18 8 0 -23 66 -46 102 -10 14 -19 35
-20 47 0 11 -3 18 -5 16 -2 -2 -22 3 -45 11 -23 8 -53 12 -67 10 -39 -8 -74
-18 -85 -26 -12 -8 -276 -4 -318 5 -19 4 -26 2 -22 -5 4 -6 -8 -10 -32 -10
-52 0 -83 10 -83 25 0 8 -10 17 -22 21 -37 12 -78 12 -78 0 0 -21 -220 1 -240
23 -10 11 -105 43 -140 47 -111 11 -172 15 -225 14 -138 -4 -485 6 -515 15
-14 5 -65 9 -113 10 -71 2 -92 6 -110 22 -15 12 -38 19 -67 19 -25 1 -70 4
-100 8 -84 11 -160 13 -160 4 0 -4 -11 -8 -25 -8 -14 0 -25 4 -25 10 0 11 -52
9 -61 -3 -3 -5 -24 -10 -45 -12 -21 -2 -63 -13 -93 -25 -30 -11 -60 -19 -67
-16 -7 3 -27 -8 -45 -25 -18 -16 -44 -31 -58 -33 -35 -4 -133 -36 -145 -47 -6
-5 -20 -9 -32 -9 -12 0 -47 -11 -78 -25 -31 -14 -59 -25 -64 -25 -42 -1 -102
-34 -147 -80 -14 -14 -25 -20 -25 -15 0 6 -5 3 -10 -5 -5 -8 -14 -16 -20 -16
-5 -1 -15 -2 -20 -3 -6 0 -9 -7 -8 -13 2 -8 -8 -13 -25 -13 -15 -1 -36 -9 -47
-18 -11 -9 -20 -15 -20 -12 0 3 -8 -3 -18 -12 -11 -10 -17 -22 -14 -27 3 -5
-2 -7 -11 -3 -9 3 -18 -1 -21 -10 -4 -8 -13 -13 -21 -9 -8 3 -21 -4 -29 -15
-9 -13 -28 -22 -52 -24 -21 -2 -40 -9 -42 -14 -2 -6 -15 -11 -28 -11 -13 0
-24 -4 -24 -10 0 -5 -11 -12 -23 -16 -13 -3 -38 -21 -56 -40 -18 -19 -38 -31
-43 -28 -6 4 -9 3 -6 -2 3 -5 -3 -17 -14 -26 -10 -10 -18 -15 -18 -10 0 4 -6
-4 -13 -18 -8 -14 -19 -24 -26 -22 -7 1 -10 -1 -7 -6 5 -8 -40 -55 -47 -49 -5
3 -33 -27 -34 -37 -1 -5 -13 -16 -27 -26 -15 -9 -36 -30 -49 -47 -34 -46 -56
-65 -67 -58 -5 3 -10 -1 -10 -10 0 -17 -66 -85 -81 -85 -5 0 -9 -4 -9 -10 0
-5 -7 -10 -16 -10 -8 0 -12 -4 -9 -10 3 -5 1 -10 -4 -10 -6 0 -11 -7 -11 -17
0 -9 -3 -14 -6 -10 -8 8 -34 -18 -34 -33 0 -6 -4 -8 -10 -5 -5 3 -10 2 -10 -3
0 -14 -116 -132 -130 -132 -6 0 -9 -4 -6 -9 5 -8 -67 -91 -80 -91 -3 0 -19
-13 -34 -30 -15 -16 -33 -30 -39 -30 -6 0 -11 -5 -11 -11 0 -11 -57 -69 -67
-69 -8 0 -43 -42 -43 -52 0 -4 -5 -8 -11 -8 -6 0 -36 -22 -67 -49 -31 -26 -68
-57 -81 -67 -13 -11 -43 -38 -67 -61 -24 -24 -46 -43 -51 -43 -4 -1 -19 -14
-33 -30 -13 -17 -30 -30 -36 -30 -7 0 -16 -9 -19 -20 -6 -18 -17 -24 -37 -21
-5 0 -7 -2 -5 -7 1 -4 -1 -7 -5 -7 -4 0 -21 -19 -38 -42 -27 -37 -42 -49 -52
-41 -2 1 -21 -17 -44 -40 -22 -23 -46 -42 -51 -42 -6 0 -23 -16 -39 -35 -15
-19 -29 -33 -31 -31 -2 2 -24 -17 -48 -42 -25 -25 -45 -42 -45 -37 0 4 -9 -2
-20 -15 -11 -13 -20 -27 -20 -32 0 -4 -7 -8 -15 -8 -8 0 -15 -6 -15 -13 0 -7
-13 -26 -30 -42 -16 -16 -30 -35 -30 -42 0 -7 -4 -13 -8 -13 -5 0 -19 -19 -32
-42 -24 -44 -60 -99 -71 -108 -7 -7 -22 -43 -21 -51 1 -4 -8 -15 -18 -24 -11
-10 -20 -22 -20 -28 0 -5 -8 -17 -19 -26 -10 -9 -28 -36 -41 -61 -12 -25 -26
-47 -30 -50 -12 -7 -73 -132 -73 -147 0 -8 -11 -16 -23 -19 -18 -5 -24 -15
-30 -50 -3 -24 -10 -44 -15 -44 -5 0 -5 -8 -2 -17 5 -13 2 -15 -11 -10 -14 6
-16 3 -11 -14 7 -22 -18 -59 -42 -59 -7 0 -13 -6 -13 -13 0 -7 -5 -18 -12 -25
-7 -7 -11 -30 -9 -52 1 -24 -2 -40 -8 -40 -6 0 -11 -7 -11 -15 0 -8 -4 -15
-10 -15 -5 0 -7 -7 -4 -15 4 -8 2 -15 -3 -15 -5 0 -10 -10 -10 -22 -1 -13 -7
-24 -13 -26 -5 -2 -10 -10 -10 -18 0 -19 -50 -15 -71 6 -12 12 -14 28 -10 70
8 69 8 71 -5 95 -6 11 -12 40 -13 65 0 25 -6 57 -12 73 -9 21 -8 31 2 44 10
11 10 14 2 9 -9 -5 -14 0 -15 16 -4 64 -6 75 -15 93 -6 11 -9 30 -7 43 2 12 0
22 -5 22 -10 0 -25 74 -22 107 1 12 -3 32 -9 43 -12 22 -19 53 -24 100 -2 14
-9 39 -16 55 -8 17 -15 35 -15 40 -1 6 -8 30 -15 55 -8 25 -13 54 -13 65 0 11
-3 22 -8 26 -5 3 -10 18 -12 35 -2 16 -11 43 -20 61 -9 17 -18 45 -19 63 -1
17 -6 34 -10 36 -4 3 -8 16 -8 30 0 13 -4 24 -9 24 -11 0 -21 26 -27 70 -8 63
-13 83 -22 89 -5 3 -8 19 -8 35 1 15 -4 30 -11 33 -7 3 -13 10 -13 17 0 6 -8
16 -19 23 -17 11 -20 41 -9 133 3 25 -14 80 -24 80 -5 0 -8 8 -6 18 3 9 -4 33
-13 53 -10 20 -18 45 -19 55 -1 46 -8 74 -22 96 -9 13 -18 42 -21 63 -9 59
-18 98 -27 120 -4 11 -14 36 -21 55 -7 19 -21 43 -30 53 -19 20 -41 96 -32
110 3 4 -4 11 -16 14 -19 5 -38 39 -28 50 9 9 -22 85 -43 103 -11 9 -18 19
-15 21 2 3 -14 24 -35 48 -22 24 -40 51 -40 61 0 10 -7 23 -15 30 -8 7 -15 19
-15 27 0 14 -98 113 -113 113 -5 0 -6 4 -3 9 3 4 -7 19 -22 32 -27 23 -39 31
-95 61 -12 7 -30 20 -41 28 -10 8 -20 14 -22 12 -8 -5 -74 30 -74 39 0 5 -12
9 -26 9 -14 0 -32 7 -40 15 -9 8 -33 18 -55 21 -21 4 -39 11 -39 17 0 6 -3 8
-6 5 -3 -4 -20 -2 -37 3 -18 6 -43 12 -57 15 -14 2 -36 7 -48 10 -13 2 -43 7
-65 10 -23 3 -62 9 -87 14 -67 14 -122 20 -260 26 -130 6 -166 13 -237 45 -24
10 -51 19 -61 19 -10 0 -22 4 -28 8 -5 5 -43 20 -84 32 -41 13 -97 36 -123 52
-26 15 -50 28 -52 28 -6 0 -37 26 -97 83 -28 26 -55 47 -59 47 -12 0 -50 76
-42 84 4 3 -4 6 -16 6 -12 0 -20 4 -17 9 8 12 -18 32 -43 34 -12 1 -21 5 -21
9 0 4 -7 8 -15 8 -9 0 -29 10 -44 21 -16 12 -33 19 -39 15 -5 -3 -17 3 -27 14
-10 11 -22 17 -27 14 -5 -3 -14 -1 -21 4 -18 14 -65 24 -136 28 -35 2 -70 9
-77 15 -8 6 -14 8 -14 5 0 -4 -8 -2 -18 3 -13 7 -23 6 -31 -2 -10 -9 -15 -9
-24 4 -8 10 -31 16 -72 17 -33 0 -87 4 -120 7 -102 11 -169 12 -182 2 -7 -5
-17 -6 -23 -2 -7 4 -14 -1 -16 -12 -6 -24 -57 -29 -74 -8 -12 14 -50 9 -50 -7
0 -5 -10 -8 -23 -6 -13 1 -34 -4 -48 -13 -13 -8 -37 -16 -54 -17 -37 -3 -55
-7 -79 -17 -29 -13 -83 -10 -101 5 -9 7 -30 14 -48 16 -60 5 -81 11 -85 22 -2
7 -14 12 -27 12 -13 0 -26 4 -29 8 -3 5 -19 9 -35 10 -16 0 -38 5 -48 10 -10
5 -24 7 -30 5 -7 -3 -13 2 -13 10 0 8 -8 14 -17 14 -25 -1 -76 14 -91 26 -10
8 -16 7 -21 -2 -5 -8 -24 -11 -54 -8 -37 3 -46 0 -50 -14 -3 -12 -14 -16 -41
-16 -20 1 -36 5 -36 9 0 4 -6 5 -13 2 -8 -3 -20 2 -27 11 -7 8 -19 15 -26 15
-8 0 -14 5 -14 10 0 6 -3 9 -7 8 -5 -1 -17 3 -28 9 -11 6 -35 13 -53 16 -28 5
-34 2 -43 -19z"/>
<path d="M3060 16509 c0 -5 5 -7 10 -4 6 3 10 8 10 11 0 2 -4 4 -10 4 -5 0
-10 -5 -10 -11z"/>
<path d="M4910 16431 c0 -5 5 -13 10 -16 6 -3 10 -2 10 4 0 5 -4 13 -10 16 -5
3 -10 2 -10 -4z"/>
<path d="M13615 11029 c-4 -6 -5 -12 -2 -15 2 -3 7 2 10 11 7 17 1 20 -8 4z"/>
<path d="M5148 7553 c7 -3 16 -2 19 1 4 3 -2 6 -13 5 -11 0 -14 -3 -6 -6z"/>
<path d="M6021 7434 c0 -11 3 -14 6 -6 3 7 2 16 -1 19 -3 4 -6 -2 -5 -13z"/>
<path d="M6240 7350 c0 -5 5 -10 10 -10 6 0 10 5 10 10 0 6 -4 10 -10 10 -5 0
-10 -4 -10 -10z"/>
<path d="M15673 5844 c-7 -18 4 -31 32 -36 12 -2 21 4 23 16 7 32 -43 50 -55
20z"/>
<path d="M3497 4283 c-4 -3 -7 -11 -7 -17 0 -6 5 -5 12 2 6 6 9 14 7 17 -3 3
-9 2 -12 -2z"/>
<path d="M14440 4111 c0 -5 5 -13 10 -16 6 -3 10 -2 10 4 0 5 -4 13 -10 16 -5
3 -10 2 -10 -4z"/>
</g>
</svg>
